<svg version="1.1" id="Layer_1" xmlns="http://www.w3.org/2000/svg" xmlns:xlink="http://www.w3.org/1999/xlink" x="0px" y="0px"
	 width="100%" viewBox="0 0 500 500" enable-background="new 0 0 500 500" xml:space="preserve">
<path fill="#000000" opacity="1.000000" stroke="none" 
	d="
M492.054932,501.000000 
	C328.047272,501.000000 164.548782,501.000000 1.025139,501.000000 
	C1.025139,334.351624 1.025139,167.703247 1.025139,1.027434 
	C167.646851,1.027434 334.293701,1.027434 500.970276,1.027434 
	C500.970276,167.645309 500.970276,334.290619 500.970276,501.000000 
	C498.188171,501.000000 495.376160,501.000000 492.054932,501.000000 
M418.186737,292.104279 
	C424.039154,291.318420 429.891602,290.532532 436.234802,289.680786 
	C433.766296,285.102692 430.457062,283.625000 426.114838,284.083130 
	C420.188019,284.708466 414.258118,285.307892 408.338867,285.998383 
	C407.133820,286.138947 405.970154,286.633942 404.593353,287.019928 
	C406.639282,292.115601 410.792480,290.623352 414.143768,291.271454 
	C415.653473,291.563416 417.047211,292.454865 417.785889,293.386017 
	C415.802551,302.052002 413.572876,310.675140 412.050476,319.421356 
	C411.757507,321.104553 414.239136,323.270721 415.440826,325.214081 
	C416.655792,323.785126 418.682953,322.491150 418.946716,320.904114 
	C420.163147,313.585297 421.138031,306.200836 421.613007,298.802277 
	C421.730835,296.966827 419.658997,294.990814 418.186737,292.104279 
M162.032684,322.164764 
	C165.331558,324.738403 168.070831,323.980530 169.733246,319.680511 
	C171.827164,314.264313 173.450821,308.664551 175.593231,303.269440 
	C177.483688,298.508881 179.808014,293.920593 181.940750,289.256256 
	C182.449020,289.383484 182.957275,289.510712 183.465546,289.637939 
	C185.067474,294.427063 186.467972,299.296356 188.332596,303.980957 
	C189.936829,308.011353 193.021057,308.602875 196.128815,305.579407 
	C198.501175,303.271423 200.456192,300.540558 202.696945,298.089294 
	C204.462616,296.157745 206.380753,294.365601 208.231186,292.511536 
	C208.687714,292.802338 209.144241,293.093140 209.600784,293.383972 
	C208.738358,301.470123 207.832001,309.551971 207.031891,317.644318 
	C206.626434,321.744873 207.341324,325.256653 213.200287,326.251862 
	C214.304382,316.453430 215.646729,306.948242 216.333908,297.395935 
	C216.662735,292.825073 217.971451,287.148682 212.042282,284.770966 
	C206.076660,282.378601 202.508438,286.973572 198.732025,290.386841 
	C197.633926,291.379333 196.691147,292.610870 195.923538,293.881683 
	C195.248001,295.000000 194.916565,296.326202 194.433182,297.560608 
	C191.716156,293.156738 190.879150,290.113922 189.430771,287.397034 
	C186.187286,281.312866 179.932480,280.799103 175.698807,286.260071 
	C174.095688,288.327942 172.765121,290.740570 171.869492,293.199707 
	C168.467377,302.541016 165.293930,311.965576 162.032684,322.164764 
M255.016891,285.645386 
	C252.084045,287.110138 248.785034,288.117584 246.283325,290.120758 
	C236.727203,297.772614 231.830490,308.465759 227.938980,319.704865 
	C227.494415,320.988800 227.333084,322.370819 227.040421,323.707367 
	C227.403976,323.940247 227.767532,324.173126 228.131073,324.405975 
	C230.059952,322.512482 232.296326,320.841431 233.858322,318.682495 
	C238.034851,312.909821 241.630615,306.698761 246.024460,301.107758 
	C249.051315,297.256195 253.024475,294.148285 256.574707,290.708008 
	C257.270721,291.054443 257.966736,291.400848 258.662750,291.747284 
	C258.662750,294.125641 258.872192,296.526123 258.623291,298.878143 
	C257.892273,305.786194 256.790863,312.661011 256.277069,319.581696 
	C256.156799,321.201630 257.785706,322.951416 258.609863,324.641479 
	C260.103424,323.446869 262.612793,322.468964 262.921570,321.021576 
	C264.608490,313.113617 266.290771,305.132751 266.928284,297.094025 
	C267.508514,289.777618 263.223907,285.937622 255.016891,285.645386 
M108.989571,294.343292 
	C106.999458,300.230316 106.237595,307.066162 102.645790,311.715912 
	C99.555077,315.717010 93.236130,317.224365 87.413651,320.331055 
	C88.807114,321.267944 90.594917,323.364349 92.667961,323.700256 
	C99.588165,324.821442 105.283798,322.465027 109.647430,316.679718 
	C115.349022,309.120514 116.347801,300.262787 117.104050,291.350311 
	C117.433357,287.469543 115.363304,284.913818 111.102234,283.990601 
	C110.371597,287.365936 109.708939,290.427216 108.989571,294.343292 
M331.779663,284.676147 
	C330.630341,285.356750 328.830139,285.781647 328.444855,286.762390 
	C326.817352,290.905396 325.500153,295.182281 324.277832,299.469635 
	C322.601379,305.349854 321.207367,311.310944 319.510468,317.184845 
	C318.477905,320.759094 319.997009,323.214355 322.989075,324.311462 
	C323.695465,324.570465 326.278625,321.800140 326.825653,320.055603 
	C329.733429,310.782013 332.508575,301.448090 334.738190,291.995575 
	C335.210297,289.994080 333.216644,287.411011 331.779663,284.676147 
M276.895508,319.754974 
	C278.327637,321.484680 279.759796,323.214355 281.557739,325.385895 
	C282.494110,323.677979 282.999084,323.023743 283.236420,322.283722 
	C286.420471,312.355316 289.642639,302.437927 292.687866,292.466705 
	C294.000549,288.168518 291.537292,285.766022 286.760345,283.293701 
	C283.347565,295.599060 280.098724,307.313263 276.895508,319.754974 
M352.659821,295.174530 
	C353.340393,294.454803 353.945007,293.638184 354.716003,293.033752 
	C356.910217,291.313599 357.068451,289.459076 354.993103,287.665100 
	C353.105164,286.033051 351.265656,284.486511 348.529327,286.811951 
	C337.116211,296.511444 335.151123,302.267670 339.793213,316.292419 
	C340.599792,318.729187 343.559296,320.453278 345.524414,322.506561 
	C345.638092,319.942810 346.615295,317.007385 345.702057,314.885620 
	C343.057281,308.741150 343.347534,303.708435 348.914398,299.425690 
	C350.201874,298.435181 351.115814,296.959076 352.659821,295.174530 
M300.567017,291.006866 
	C304.285065,295.893890 304.005737,296.367126 299.014282,299.650787 
	C297.461090,300.672577 296.069702,303.261017 296.097382,305.109955 
	C296.171295,310.054688 296.762634,315.046936 297.752075,319.897156 
	C298.183197,322.010468 300.090790,323.822601 301.327850,325.771545 
	C302.175415,325.451111 303.022980,325.130707 303.870544,324.810272 
	C303.401154,320.700714 303.226715,316.528168 302.367340,312.501862 
	C301.701782,309.383575 301.756531,306.744568 304.737488,305.228363 
	C311.303894,301.888397 310.011932,294.052002 306.983643,289.653442 
	C303.123077,284.046051 298.728516,282.987183 294.181854,286.705780 
	C296.177185,288.017548 298.089447,289.274719 300.567017,291.006866 
M365.106232,318.797302 
	C368.401703,325.188171 376.390228,326.624176 383.308014,321.975555 
	C381.039398,314.548645 374.938660,320.782135 370.853455,318.566376 
	C371.138214,316.802490 371.334747,315.025726 371.722107,313.291565 
	C372.842682,308.274872 374.304810,303.315399 375.071167,298.248505 
	C375.359680,296.341003 374.105530,294.200195 373.554688,292.165741 
	C372.873108,292.231598 372.191528,292.297455 371.509979,292.363281 
	C368.797394,300.743011 364.906616,308.787476 365.106232,318.797302 
M395.554047,290.411255 
	C398.129395,286.823883 395.184814,285.097351 392.793640,285.090363 
	C387.762695,285.075684 382.696381,285.933197 377.719269,286.841736 
	C376.517151,287.061127 375.605713,288.873016 374.467407,290.048859 
	C381.622223,294.719910 388.280334,290.820312 395.554047,290.411255 
M129.958481,312.744202 
	C136.284393,312.919708 142.610367,313.173187 148.936111,313.167297 
	C149.686417,313.166595 151.155106,311.586945 151.028763,311.020844 
	C150.796494,309.980011 149.627365,308.356903 148.844742,308.354645 
	C142.258652,308.335663 135.668976,308.576263 129.088760,308.905975 
	C128.378540,308.941528 127.721581,310.039764 127.039894,310.645050 
	C127.772324,311.222900 128.504745,311.800720 129.958481,312.744202 
M254.206650,310.200226 
	C252.923309,305.369263 250.534149,305.104919 243.665222,309.266815 
	C246.776947,312.329010 249.997833,313.129272 254.206650,310.200226 
M378.037415,304.841553 
	C379.310089,306.535187 380.483795,308.324341 381.943848,309.837158 
	C382.216766,310.119934 384.282898,309.454529 384.406647,308.952118 
	C384.778351,307.442810 385.171814,305.496887 384.524078,304.263763 
	C382.778564,300.940765 380.466248,302.724854 378.037415,304.841553 
z"/>
<path fill="#F7F7F7" opacity="1.000000" stroke="none" 
	d="
M162.033844,321.761902 
	C165.293930,311.965576 168.467377,302.541016 171.869492,293.199707 
	C172.765121,290.740570 174.095688,288.327942 175.698807,286.260071 
	C179.932480,280.799103 186.187286,281.312866 189.430771,287.397034 
	C190.879150,290.113922 191.716156,293.156738 194.433182,297.560608 
	C194.916565,296.326202 195.248001,295.000000 195.923538,293.881683 
	C196.691147,292.610870 197.633926,291.379333 198.732025,290.386841 
	C202.508438,286.973572 206.076660,282.378601 212.042282,284.770966 
	C217.971451,287.148682 216.662735,292.825073 216.333908,297.395935 
	C215.646729,306.948242 214.304382,316.453430 213.200287,326.251862 
	C207.341324,325.256653 206.626434,321.744873 207.031891,317.644318 
	C207.832001,309.551971 208.738358,301.470123 209.600784,293.383972 
	C209.144241,293.093140 208.687714,292.802338 208.231186,292.511536 
	C206.380753,294.365601 204.462616,296.157745 202.696945,298.089294 
	C200.456192,300.540558 198.501175,303.271423 196.128815,305.579407 
	C193.021057,308.602875 189.936829,308.011353 188.332596,303.980957 
	C186.467972,299.296356 185.067474,294.427063 183.465546,289.637939 
	C182.957275,289.510712 182.449020,289.383484 181.940750,289.256256 
	C179.808014,293.920593 177.483688,298.508881 175.593231,303.269440 
	C173.450821,308.664551 171.827164,314.264313 169.733246,319.680511 
	C168.070831,323.980530 165.331558,324.738403 162.033844,321.761902 
z"/>
<path fill="#F5F5F5" opacity="1.000000" stroke="none" 
	d="
M255.397217,285.571777 
	C263.223907,285.937622 267.508514,289.777618 266.928284,297.094025 
	C266.290771,305.132751 264.608490,313.113617 262.921570,321.021576 
	C262.612793,322.468964 260.103424,323.446869 258.609863,324.641479 
	C257.785706,322.951416 256.156799,321.201630 256.277069,319.581696 
	C256.790863,312.661011 257.892273,305.786194 258.623291,298.878143 
	C258.872192,296.526123 258.662750,294.125641 258.662750,291.747284 
	C257.966736,291.400848 257.270721,291.054443 256.574707,290.708008 
	C253.024475,294.148285 249.051315,297.256195 246.024460,301.107758 
	C241.630615,306.698761 238.034851,312.909821 233.858322,318.682495 
	C232.296326,320.841431 230.059952,322.512482 228.131073,324.405975 
	C227.767532,324.173126 227.403976,323.940247 227.040421,323.707367 
	C227.333084,322.370819 227.494415,320.988800 227.938980,319.704865 
	C231.830490,308.465759 236.727203,297.772614 246.283325,290.120758 
	C248.785034,288.117584 252.084045,287.110138 255.397217,285.571777 
z"/>
<path fill="#F5F5F5" opacity="1.000000" stroke="none" 
	d="
M109.017929,293.915894 
	C109.708939,290.427216 110.371597,287.365936 111.102234,283.990601 
	C115.363304,284.913818 117.433357,287.469543 117.104050,291.350311 
	C116.347801,300.262787 115.349022,309.120514 109.647430,316.679718 
	C105.283798,322.465027 99.588165,324.821442 92.667961,323.700256 
	C90.594917,323.364349 88.807114,321.267944 87.413651,320.331055 
	C93.236130,317.224365 99.555077,315.717010 102.645790,311.715912 
	C106.237595,307.066162 106.999458,300.230316 109.017929,293.915894 
z"/>
<path fill="#F5F5F5" opacity="1.000000" stroke="none" 
	d="
M332.069397,284.886017 
	C333.216644,287.411011 335.210297,289.994080 334.738190,291.995575 
	C332.508575,301.448090 329.733429,310.782013 326.825653,320.055603 
	C326.278625,321.800140 323.695465,324.570465 322.989075,324.311462 
	C319.997009,323.214355 318.477905,320.759094 319.510468,317.184845 
	C321.207367,311.310944 322.601379,305.349854 324.277832,299.469635 
	C325.500153,295.182281 326.817352,290.905396 328.444855,286.762390 
	C328.830139,285.781647 330.630341,285.356750 332.069397,284.886017 
z"/>
<path fill="#F7F7F7" opacity="1.000000" stroke="none" 
	d="
M276.872681,319.391235 
	C280.098724,307.313263 283.347565,295.599060 286.760345,283.293701 
	C291.537292,285.766022 294.000549,288.168518 292.687866,292.466705 
	C289.642639,302.437927 286.420471,312.355316 283.236420,322.283722 
	C282.999084,323.023743 282.494110,323.677979 281.557739,325.385895 
	C279.759796,323.214355 278.327637,321.484680 276.872681,319.391235 
z"/>
<path fill="#F5F5F5" opacity="1.000000" stroke="none" 
	d="
M352.430725,295.440491 
	C351.115814,296.959076 350.201874,298.435181 348.914398,299.425690 
	C343.347534,303.708435 343.057281,308.741150 345.702057,314.885620 
	C346.615295,317.007385 345.638092,319.942810 345.524414,322.506561 
	C343.559296,320.453278 340.599792,318.729187 339.793213,316.292419 
	C335.151123,302.267670 337.116211,296.511444 348.529327,286.811951 
	C351.265656,284.486511 353.105164,286.033051 354.993103,287.665100 
	C357.068451,289.459076 356.910217,291.313599 354.716003,293.033752 
	C353.945007,293.638184 353.340393,294.454803 352.430725,295.440491 
z"/>
<path fill="#F4F4F4" opacity="1.000000" stroke="none" 
	d="
M300.284363,290.769379 
	C298.089447,289.274719 296.177185,288.017548 294.181854,286.705780 
	C298.728516,282.987183 303.123077,284.046051 306.983643,289.653442 
	C310.011932,294.052002 311.303894,301.888397 304.737488,305.228363 
	C301.756531,306.744568 301.701782,309.383575 302.367340,312.501862 
	C303.226715,316.528168 303.401154,320.700714 303.870544,324.810272 
	C303.022980,325.130707 302.175415,325.451111 301.327850,325.771545 
	C300.090790,323.822601 298.183197,322.010468 297.752075,319.897156 
	C296.762634,315.046936 296.171295,310.054688 296.097382,305.109955 
	C296.069702,303.261017 297.461090,300.672577 299.014282,299.650787 
	C304.005737,296.367126 304.285065,295.893890 300.284363,290.769379 
z"/>
<path fill="#F2F2F2" opacity="1.000000" stroke="none" 
	d="
M365.050171,318.380676 
	C364.906616,308.787476 368.797394,300.743011 371.509979,292.363281 
	C372.191528,292.297455 372.873108,292.231598 373.554688,292.165741 
	C374.105530,294.200195 375.359680,296.341003 375.071167,298.248505 
	C374.304810,303.315399 372.842682,308.274872 371.722107,313.291565 
	C371.334747,315.025726 371.138214,316.802490 370.853455,318.566376 
	C374.938660,320.782135 381.039398,314.548645 383.308014,321.975555 
	C376.390228,326.624176 368.401703,325.188171 365.050171,318.380676 
z"/>
<path fill="#F4F4F4" opacity="1.000000" stroke="none" 
	d="
M418.593689,293.079407 
	C419.658997,294.990814 421.730835,296.966827 421.613007,298.802277 
	C421.138031,306.200836 420.163147,313.585297 418.946716,320.904114 
	C418.682953,322.491150 416.655792,323.785126 415.440796,325.214081 
	C414.239136,323.270721 411.757507,321.104553 412.050476,319.421356 
	C413.572876,310.675140 415.802551,302.052002 418.164856,293.229309 
	C418.543854,293.072601 418.593689,293.079407 418.593689,293.079407 
z"/>
<path fill="#F2F2F2" opacity="1.000000" stroke="none" 
	d="
M418.390198,292.591858 
	C418.593689,293.079407 418.543854,293.072601 418.518707,293.073456 
	C417.047211,292.454865 415.653473,291.563416 414.143768,291.271454 
	C410.792480,290.623352 406.639282,292.115601 404.593353,287.019928 
	C405.970154,286.633942 407.133820,286.138947 408.338867,285.998383 
	C414.258118,285.307892 420.188019,284.708466 426.114838,284.083130 
	C430.457062,283.625000 433.766296,285.102692 436.234802,289.680786 
	C429.891602,290.532532 424.039154,291.318420 418.390198,292.591858 
z"/>
<path fill="#F2F2F2" opacity="1.000000" stroke="none" 
	d="
M395.215546,290.593994 
	C388.280334,290.820312 381.622223,294.719910 374.467407,290.048859 
	C375.605713,288.873016 376.517151,287.061127 377.719269,286.841736 
	C382.696381,285.933197 387.762695,285.075684 392.793640,285.090363 
	C395.184814,285.097351 398.129395,286.823883 395.215546,290.593994 
z"/>
<path fill="#F2F2F2" opacity="1.000000" stroke="none" 
	d="
M129.597839,312.561371 
	C128.504745,311.800720 127.772324,311.222900 127.039902,310.645050 
	C127.721581,310.039764 128.378540,308.941528 129.088760,308.905975 
	C135.668976,308.576263 142.258652,308.335663 148.844742,308.354645 
	C149.627365,308.356903 150.796494,309.980011 151.028763,311.020844 
	C151.155106,311.586945 149.686417,313.166595 148.936111,313.167297 
	C142.610367,313.173187 136.284393,312.919708 129.597839,312.561371 
z"/>
<path fill="#F2F2F2" opacity="1.000000" stroke="none" 
	d="
M253.989258,310.498718 
	C249.997833,313.129272 246.776947,312.329010 243.665222,309.266815 
	C250.534149,305.104919 252.923309,305.369263 253.989258,310.498718 
z"/>
<path fill="#F2F2F2" opacity="1.000000" stroke="none" 
	d="
M378.202728,304.503418 
	C380.466248,302.724854 382.778564,300.940765 384.524078,304.263763 
	C385.171814,305.496887 384.778351,307.442810 384.406647,308.952118 
	C384.282898,309.454529 382.216766,310.119934 381.943848,309.837158 
	C380.483795,308.324341 379.310089,306.535187 378.202728,304.503418 
z"/>
</svg>