<svg xmlns="http://www.w3.org/2000/svg" xmlns:xlink="http://www.w3.org/1999/xlink" version="1.1" id="Layer_1" x="0px" y="0px" enable-background="new 0 0 496 496" xml:space="preserve" viewBox="115.84 266.56 210.06 26.63">
<path fill="#000000" opacity="1.000000" stroke="none" d=" M183.353210,279.556458   C178.812439,283.393646 177.202820,282.997345 175.209549,277.986389   C174.562973,276.360962 174.604767,274.415405 173.005173,272.849915   C169.896088,276.928925 168.993423,281.701935 167.192245,286.070496   C166.503296,287.741425 165.739243,289.412109 164.761597,290.922485   C164.108963,291.930786 162.883972,292.402740 161.679398,291.766357   C160.650131,291.222565 160.570114,290.073730 160.797470,289.125275   C162.464966,282.168762 164.453018,275.267609 168.446747,269.269226   C171.026871,265.393982 175.334229,265.792938 177.786575,269.715881   C178.476898,270.820160 179.030243,272.010101 179.657974,273.182312   C182.071487,272.888763 182.938751,270.819183 184.439133,269.638214   C186.549698,267.976990 188.789566,267.025360 191.336685,268.149872   C193.796692,269.235870 194.453400,271.591522 194.229233,274.009552   C193.725082,279.447845 193.005295,284.866180 192.369049,290.292145   C192.214066,291.613861 192.191010,293.178894 190.371414,293.188263   C188.492386,293.197968 187.857422,291.734253 187.750275,290.144928   C187.548843,287.157135 187.710617,284.188934 188.249466,281.218109   C188.595749,279.308929 188.518341,277.322845 188.662750,274.818085   C185.970291,275.800476 185.175552,278.000793 183.353210,279.556458  z"/>
<path fill="#000000" opacity="1.000000" stroke="none" d=" M237.787140,267.935852   C239.488327,268.565796 240.750504,268.080963 242.055832,267.852875   C245.346008,267.278015 247.440918,269.165924 248.975845,271.680603   C250.540115,274.243439 251.211990,277.240784 248.901077,279.536346   C246.145981,282.273132 245.894470,285.203308 246.705612,288.640442   C247.099442,290.309265 247.124069,292.334686 245.006958,292.622223   C243.003571,292.894226 241.939545,290.904114 242.060318,289.311188   C242.407684,284.728943 238.807312,279.748230 244.099335,275.506531   C246.000305,273.982819 243.496002,272.213287 241.205139,271.400146   C238.258209,277.325775 236.873779,283.620422 234.988327,289.741730   C234.613846,290.957520 234.212601,292.541382 232.468079,292.332611   C231.046295,292.162445 229.749985,291.042999 229.918457,289.678162   C230.877228,281.911163 231.917938,274.123230 237.787140,267.935852  z"/>
<path fill="#000000" opacity="1.000000" stroke="none" d=" M205.953003,286.960327   C204.322495,289.163239 203.555939,291.858307 200.405594,291.773468   C199.729736,284.308350 208.592880,270.681030 215.269119,268.776794   C220.296417,267.342834 223.884567,269.786774 224.296906,275.019745   C224.680542,279.888092 223.846863,284.611145 222.426559,289.259735   C221.866913,291.091370 221.291946,293.056824 218.911606,292.561859   C216.478958,292.056000 216.816360,290.020020 217.105591,288.126007   C217.818848,283.455292 218.881622,278.796600 218.360657,273.253204   C211.692856,276.124146 209.838348,282.236420 205.953003,286.960327  z"/>
<path fill="#000000" opacity="1.000000" stroke="none" d=" M317.920837,267.672424   C321.221222,267.822998 324.516632,266.908630 325.906616,270.799133   C325.532135,271.238983 325.187927,271.941162 324.921295,271.912872   C318.160004,271.195374 317.376678,275.524902 317.393982,280.647247   C317.404053,283.635284 317.245575,286.613739 316.365540,289.518311   C315.879333,291.122925 315.586823,293.242645 313.488403,292.871948   C311.147766,292.458466 310.646210,290.335480 311.046326,288.155579   C311.614563,285.059753 311.984131,281.889435 312.940948,278.912415   C314.161560,275.114624 313.608307,272.784546 309.218719,272.292633   C307.985168,272.154358 307.069275,271.436066 307.171448,269.549744   C310.304199,267.886230 313.873352,267.743378 317.920837,267.672424  z"/>
<path fill="#000000" opacity="1.000000" stroke="none" d=" M124.427544,284.365601   C127.671051,280.196014 127.561508,275.360382 128.676590,270.900452   C128.994720,269.628052 128.972534,268.101898 130.781372,268.030579   C132.112015,267.978149 133.069061,268.909424 133.372040,270.021729   C135.005310,276.017822 132.916702,281.410156 130.256195,286.595062   C128.060791,290.873596 124.364815,292.722809 119.563789,292.323944   C116.601021,292.077789 116.601120,292.076599 115.843506,288.202362   C118.821548,287.567535 122.104485,287.388916 124.427544,284.365601  z"/>
<path fill="#000000" opacity="1.000000" stroke="none" d=" M256.470886,283.491150   C257.746338,278.954987 258.833496,274.784088 260.121155,270.675995   C260.539764,269.340454 261.091553,267.543427 263.117584,268.050262   C264.742401,268.456726 265.643158,269.839630 265.422302,271.467072   C264.504974,278.226624 262.237427,284.641052 260.126831,291.086700   C259.796600,292.095215 258.883850,292.675232 257.759491,292.458984   C256.267487,292.172028 255.484146,291.057495 255.271240,289.678162   C254.958435,287.651520 255.724716,285.764099 256.470886,283.491150  z"/>
<path fill="#000000" opacity="1.000000" stroke="none" d=" M265.746887,280.993530   C266.112610,275.665436 269.564148,272.652222 272.725067,269.510620   C274.080719,268.163239 275.799164,268.242096 277.205048,269.540314   C278.767853,270.983459 278.257202,272.477844 277.010620,273.899750   C276.136047,274.897308 275.447357,276.087738 274.467560,276.957672   C271.347656,279.727753 270.572083,282.869446 272.211792,286.778046   C272.796112,288.170868 273.677856,290.305847 271.459106,291.074249   C269.142822,291.876465 268.284058,289.818207 267.685272,288.089203   C266.927979,285.902557 266.398041,283.637177 265.746887,280.993530  z"/>
<path fill="#000000" opacity="1.000000" stroke="none" d=" M290.442108,288.035278   C292.672913,287.883850 294.302582,288.526550 294.225281,290.598145   C294.153931,292.509918 292.135406,292.549652 290.759216,292.833954   C285.706726,293.877686 282.026978,290.584381 282.878693,285.503967   C283.451782,282.085449 284.687042,278.770874 285.727234,275.441376   C286.123108,274.174286 286.765625,272.707336 288.479706,273.282990   C289.909119,273.763092 290.366425,275.167084 290.060120,276.587708   C289.430115,279.509247 288.728668,282.419037 287.936096,285.300537   C287.378571,287.327484 287.384735,288.711639 290.442108,288.035278  z"/>
<path fill="#000000" opacity="1.000000" stroke="none" d=" M289.944153,269.758575   C293.170563,267.468262 296.469086,267.421326 299.798279,267.894653   C301.186890,268.092072 302.288910,268.997192 302.359100,270.531403   C302.428802,272.055145 301.126312,272.282623 300.007080,272.615021   C297.587128,273.333618 295.085632,273.583405 292.622589,273.247925   C291.000366,273.026917 288.677063,272.920166 289.944153,269.758575  z"/>
<path fill="#000000" opacity="1.000000" stroke="none" d=" M147.992004,286.267487   C144.682999,286.216156 141.593643,286.970795 139.399750,284.139526   C141.958389,281.946503 150.671982,280.819092 152.845154,282.277954   C153.563553,282.760223 154.103271,283.396576 153.960632,284.310730   C153.823792,285.187744 153.256454,285.862946 152.377258,285.986603   C151.078979,286.169281 149.756409,286.179199 147.992004,286.267487  z"/>
<path fill="#000000" opacity="1.000000" stroke="none" d=" M216.331436,282.415100   C214.879410,287.194458 212.530273,284.762756 209.643173,283.811981   C211.814743,281.006653 213.665558,280.089539 216.331436,282.415100  z"/>
<path fill="#000000" opacity="1.000000" stroke="none" d=" M294.442139,279.158813   C295.925507,281.028046 296.430939,282.778900 294.092499,283.725189   C292.717834,284.281433 291.419159,283.277557 291.065155,281.936432   C290.402039,279.423950 291.932281,278.782166 294.442139,279.158813  z"/>
</svg>